<svg width="14" height="19" viewBox="0 0 14 19" fill="none" xmlns="http://www.w3.org/2000/svg">
<path d="M6.51029 0.685547C4.78887 0.686985 3.13797 1.36956 1.91816 2.58419C0.698352 3.79883 0.00875978 5.44681 0 7.1682C0 9.7491 1.44796 11.91 2.50906 13.4851L2.70249 13.7724C3.75821 15.3025 4.89077 16.7782 6.09579 18.1937L6.51581 18.6855L6.93583 18.1937C8.1407 16.778 9.27325 15.3024 10.3291 13.7724L10.5226 13.4795C11.5781 11.9045 13.0261 9.7491 13.0261 7.1682C13.0173 5.44585 12.327 3.79703 11.106 2.58225C9.88497 1.36746 8.23266 0.685525 6.51029 0.685547V0.685547ZM9.59963 12.844L9.40068 13.1369C8.45011 14.5627 7.19005 16.1599 6.51029 16.9502C5.85815 16.1599 4.57046 14.5627 3.6199 13.1369L3.42647 12.844C2.44827 11.385 1.10531 9.38988 1.10531 7.14609C1.10531 6.4363 1.24512 5.73346 1.51674 5.0777C1.78837 4.42194 2.18649 3.8261 2.68839 3.3242C3.19029 2.8223 3.78613 2.42417 4.44189 2.15255C5.09765 1.88092 5.8005 1.74112 6.51029 1.74112C7.22008 1.74112 7.92292 1.88092 8.57868 2.15255C9.23444 2.42417 9.83028 2.8223 10.3322 3.3242C10.8341 3.8261 11.2322 4.42194 11.5038 5.0777C11.7755 5.73346 11.9153 6.4363 11.9153 7.14609C11.9153 9.41198 10.5778 11.4071 9.59963 12.844V12.844Z" fill="#717D8A"/>
</svg>
