<svg width="15" height="13" viewBox="0 0 15 13" fill="none" xmlns="http://www.w3.org/2000/svg">
<path d="M14.1429 0.5H0.52381C0.234077 0.5 0 0.74375 0 1.04545V11.9545C0 12.2563 0.234077 12.5 0.52381 12.5H14.1429C14.4326 12.5 14.6667 12.2563 14.6667 11.9545V1.04545C14.6667 0.74375 14.4326 0.5 14.1429 0.5ZM13.4881 2.38864V11.2727H1.17857V2.38864L0.726786 2.02216L1.37009 1.16136L2.07068 1.72898H12.5976L13.2982 1.16136L13.9415 2.02216L13.4881 2.38864ZM12.5976 1.72727L7.33333 5.98864L2.06905 1.72727L1.36845 1.15966L0.725149 2.02045L1.17693 2.38693L6.7686 6.9142C6.92941 7.0443 7.12724 7.11492 7.33088 7.11492C7.53451 7.11492 7.73235 7.0443 7.89316 6.9142L13.4881 2.38864L13.9399 2.02216L13.2966 1.16136L12.5976 1.72727Z" fill="#717D8A"/>
</svg>
