<svg width="64" height="16" viewBox="0 0 64 16" fill="none" xmlns="http://www.w3.org/2000/svg">
<path d="M23.2992 12.2672C22.4965 12.2672 21.8152 12.0899 21.2552 11.7352C20.6952 11.3806 20.2677 10.8878 19.9728 10.2568C19.6816 9.62588 19.536 8.89602 19.536 8.06722C19.536 7.23842 19.6816 6.50855 19.9728 5.87762C20.2677 5.24668 20.6952 4.75388 21.2552 4.39922C21.8152 4.04455 22.4965 3.86722 23.2992 3.86722C24.2325 3.86722 24.9997 4.10428 25.6008 4.57842C26.2056 5.05255 26.6219 5.69095 26.8496 6.49362L25.836 6.76242C25.6717 6.16135 25.3787 5.68722 24.9568 5.34002C24.5349 4.99282 23.9824 4.81922 23.2992 4.81922C22.6981 4.81922 22.1979 4.95548 21.7984 5.22802C21.3989 5.50055 21.0984 5.88135 20.8968 6.37042C20.6952 6.85575 20.5925 7.42135 20.5888 8.06722C20.5851 8.70935 20.684 9.27495 20.8856 9.76402C21.0872 10.2494 21.3896 10.6302 21.7928 10.9064C22.196 11.179 22.6981 11.3152 23.2992 11.3152C23.9824 11.3152 24.5349 11.1416 24.9568 10.7944C25.3787 10.4435 25.6717 9.96935 25.836 9.37202L26.8496 9.64082C26.6219 10.4398 26.2056 11.0782 25.6008 11.556C24.9997 12.0302 24.2325 12.2672 23.2992 12.2672ZM32.3842 12.0992V9.06962C32.3842 8.78215 32.358 8.50588 32.3058 8.24082C32.2572 7.97575 32.1695 7.73868 32.0426 7.52962C31.9194 7.31682 31.7514 7.14882 31.5386 7.02562C31.3295 6.90242 31.0644 6.84082 30.7434 6.84082C30.4932 6.84082 30.2655 6.88375 30.0602 6.96962C29.8586 7.05175 29.685 7.17868 29.5394 7.35042C29.3938 7.52215 29.2799 7.73868 29.1978 8.00002C29.1194 8.25762 29.0802 8.56188 29.0802 8.91282L28.425 8.71122C28.425 8.12508 28.5295 7.62295 28.7386 7.20482C28.9514 6.78295 29.2482 6.46002 29.629 6.23602C30.0135 6.00828 30.4652 5.89442 30.9842 5.89442C31.3762 5.89442 31.7103 5.95602 31.9866 6.07922C32.2628 6.20242 32.4924 6.36668 32.6754 6.57202C32.8583 6.77362 33.002 7.00135 33.1066 7.25522C33.2111 7.50535 33.2839 7.76108 33.325 8.02242C33.3698 8.28002 33.3922 8.52455 33.3922 8.75602V12.0992H32.3842ZM28.0722 12.0992V4.03522H28.9682V8.48722H29.0802V12.0992H28.0722ZM37.4689 12.2672C36.8753 12.2672 36.3563 12.1366 35.9121 11.8752C35.4715 11.6102 35.1281 11.2424 34.8817 10.772C34.6353 10.2979 34.5121 9.74535 34.5121 9.11442C34.5121 8.45362 34.6334 7.88242 34.8761 7.40082C35.1187 6.91548 35.4566 6.54215 35.8897 6.28082C36.3265 6.01575 36.8379 5.88322 37.4241 5.88322C38.0326 5.88322 38.5497 6.02322 38.9753 6.30322C39.4046 6.58322 39.7257 6.98268 39.9385 7.50162C40.155 8.02055 40.2483 8.63842 40.2185 9.35522H39.2105V8.99682C39.1993 8.25388 39.0481 7.69949 38.7569 7.33362C38.4657 6.96402 38.0326 6.77922 37.4577 6.77922C36.8417 6.77922 36.3731 6.97708 36.0521 7.37282C35.731 7.76855 35.5705 8.33602 35.5705 9.07522C35.5705 9.78829 35.731 10.3408 36.0521 10.7328C36.3731 11.1248 36.8305 11.3208 37.4241 11.3208C37.8235 11.3208 38.1707 11.2294 38.4657 11.0464C38.7606 10.8635 38.9921 10.6003 39.1601 10.2568L40.1177 10.5872C39.8825 11.1211 39.5278 11.5355 39.0537 11.8304C38.5833 12.1216 38.055 12.2672 37.4689 12.2672ZM35.2345 9.35522V8.55442H39.7033V9.35522H35.2345ZM45.6076 12.0992V9.06962C45.6076 8.78215 45.5815 8.50588 45.5292 8.24082C45.4807 7.97575 45.3929 7.73868 45.266 7.52962C45.1428 7.31682 44.9748 7.14882 44.762 7.02562C44.5529 6.90242 44.2879 6.84082 43.9668 6.84082C43.7167 6.84082 43.4889 6.88375 43.2836 6.96962C43.082 7.05175 42.9084 7.17868 42.7628 7.35042C42.6172 7.52215 42.5033 7.73868 42.4212 8.00002C42.3428 8.25762 42.3036 8.56188 42.3036 8.91282L41.6484 8.71122C41.6484 8.12508 41.7529 7.62295 41.962 7.20482C42.1748 6.78295 42.4716 6.46002 42.8524 6.23602C43.2369 6.00828 43.6887 5.89442 44.2076 5.89442C44.5996 5.89442 44.9337 5.95602 45.21 6.07922C45.4863 6.20242 45.7159 6.36668 45.8988 6.57202C46.0817 6.77362 46.2255 7.00135 46.33 7.25522C46.4345 7.50535 46.5073 7.76108 46.5484 8.02242C46.5932 8.28002 46.6156 8.52455 46.6156 8.75602V12.0992H45.6076ZM41.2956 12.0992V6.05122H42.1916V7.66962H42.3036V12.0992H41.2956ZM52.3779 12.0992V9.06962C52.3779 8.78215 52.3518 8.50588 52.2995 8.24082C52.251 7.97575 52.1632 7.73868 52.0363 7.52962C51.9131 7.31682 51.7451 7.14882 51.5323 7.02562C51.3232 6.90242 51.0582 6.84082 50.7371 6.84082C50.487 6.84082 50.2592 6.88375 50.0539 6.96962C49.8523 7.05175 49.6787 7.17868 49.5331 7.35042C49.3875 7.52215 49.2736 7.73868 49.1915 8.00002C49.1131 8.25762 49.0739 8.56188 49.0739 8.91282L48.4187 8.71122C48.4187 8.12508 48.5232 7.62295 48.7323 7.20482C48.9451 6.78295 49.2419 6.46002 49.6227 6.23602C50.0072 6.00828 50.459 5.89442 50.9779 5.89442C51.3699 5.89442 51.704 5.95602 51.9803 6.07922C52.2566 6.20242 52.4862 6.36668 52.6691 6.57202C52.852 6.77362 52.9958 7.00135 53.1003 7.25522C53.2048 7.50535 53.2776 7.76108 53.3187 8.02242C53.3635 8.28002 53.3859 8.52455 53.3859 8.75602V12.0992H52.3779ZM48.0659 12.0992V6.05122H48.9619V7.66962H49.0739V12.0992H48.0659ZM56.561 12.2672C56.1093 12.2672 55.7304 12.1851 55.4242 12.0208C55.1218 11.8528 54.8922 11.6326 54.7354 11.36C54.5824 11.0875 54.5058 10.7888 54.5058 10.464C54.5058 10.1467 54.5656 9.87229 54.685 9.64082C54.8082 9.40562 54.98 9.21148 55.2002 9.05842C55.4205 8.90162 55.6837 8.77842 55.9898 8.68882C56.2773 8.61042 56.5984 8.54322 56.953 8.48722C57.3114 8.42748 57.6736 8.37335 58.0394 8.32482C58.4053 8.27628 58.7469 8.22962 59.0642 8.18482L58.7058 8.39202C58.717 7.85442 58.6088 7.45682 58.381 7.19922C58.157 6.94162 57.7688 6.81282 57.2162 6.81282C56.8504 6.81282 56.5293 6.89682 56.253 7.06482C55.9805 7.22908 55.7882 7.49788 55.6762 7.87122L54.7298 7.58562C54.8754 7.05548 55.1573 6.63922 55.5754 6.33682C55.9936 6.03442 56.5442 5.88322 57.2274 5.88322C57.7762 5.88322 58.2466 5.98215 58.6386 6.18002C59.0344 6.37415 59.3181 6.66909 59.4898 7.06482C59.5757 7.25148 59.6298 7.45495 59.6522 7.67522C59.6746 7.89175 59.6858 8.11948 59.6858 8.35842V12.0992H58.801V10.6488L59.0082 10.7832C58.7805 11.2723 58.4613 11.6419 58.0506 11.892C57.6437 12.1422 57.1472 12.2672 56.561 12.2672ZM56.7122 11.4328C57.0706 11.4328 57.3805 11.3694 57.6418 11.2424C57.9069 11.1118 58.1197 10.9419 58.2802 10.7328C58.4408 10.52 58.5453 10.2886 58.5938 10.0384C58.6498 9.85175 58.6797 9.64455 58.6834 9.41682C58.6909 9.18535 58.6946 9.00802 58.6946 8.88482L59.0418 9.03602C58.717 9.08082 58.3978 9.12375 58.0842 9.16482C57.7706 9.20588 57.4738 9.25069 57.1938 9.29922C56.9138 9.34402 56.6618 9.39815 56.4378 9.46162C56.2736 9.51388 56.1186 9.58108 55.973 9.66322C55.8312 9.74535 55.7154 9.85175 55.6258 9.98242C55.54 10.1094 55.497 10.268 55.497 10.4584C55.497 10.6227 55.5381 10.7795 55.6202 10.9288C55.7061 11.0782 55.8368 11.1995 56.0122 11.2928C56.1914 11.3862 56.4248 11.4328 56.7122 11.4328ZM61.2538 4.98162V3.95122H62.2506V4.98162H61.2538ZM61.2538 12.0992V6.05122H62.2506V12.0992H61.2538Z" fill="#717D8A"/>
<path d="M6.00838 3.43516C5.50733 3.43516 5.01753 3.58374 4.60091 3.86211C4.1843 4.14048 3.85959 4.53614 3.66785 4.99905C3.4761 5.46196 3.42593 5.97134 3.52369 6.46277C3.62144 6.95419 3.86272 7.4056 4.21702 7.7599C4.57131 8.1142 5.02272 8.35548 5.51414 8.45323C6.00557 8.55098 6.51495 8.50081 6.97786 8.30906C7.44078 8.11732 7.83643 7.79261 8.11481 7.376C8.39318 6.95939 8.54176 6.46958 8.54176 5.96853C8.54176 5.29664 8.27485 4.65226 7.79975 4.17716C7.32465 3.70206 6.68027 3.43516 6.00838 3.43516ZM6.00838 7.61766C5.68222 7.61766 5.36337 7.52094 5.09218 7.33973C4.82098 7.15852 4.60961 6.90096 4.48479 6.59962C4.35997 6.29828 4.32731 5.9667 4.39094 5.6468C4.45458 5.3269 4.61164 5.03306 4.84227 4.80242C5.07291 4.57179 5.36675 4.41472 5.68665 4.35109C6.00655 4.28746 6.33814 4.32012 6.63947 4.44494C6.94081 4.56976 7.19837 4.78113 7.37958 5.05233C7.56079 5.32352 7.65751 5.64236 7.65751 5.96853C7.65634 6.40514 7.48207 6.82346 7.17293 7.13178C6.86378 7.4401 6.44499 7.61324 6.00838 7.61323V7.61766Z" fill="#717D8A"/>
<path d="M6.00822 1.34844C4.63109 1.34959 3.31037 1.89565 2.33452 2.86736C1.35867 3.83906 0.806996 5.15745 0.799988 6.53456C0.799988 8.59928 1.95835 10.328 2.80723 11.588L2.96198 11.8179C3.80656 13.042 4.7126 14.2225 5.67662 15.3549L6.01264 15.7484L6.34865 15.3549C7.31255 14.2224 8.21859 13.0419 9.0633 11.8179L9.21804 11.5836C10.0625 10.3236 11.2209 8.59928 11.2209 6.53456C11.2139 5.15668 10.6616 3.83763 9.68477 2.8658C8.70797 1.89397 7.38611 1.34842 6.00822 1.34844ZM8.47969 11.0752L8.32053 11.3095C7.56007 12.4502 6.55203 13.7279 6.00822 14.3602C5.48651 13.7279 4.45636 12.4502 3.6959 11.3095L3.54116 11.0752C2.7586 9.90797 1.68424 8.3119 1.68424 6.51688C1.68424 5.94904 1.79608 5.38677 2.01338 4.86216C2.23068 4.33755 2.54918 3.86088 2.9507 3.45936C3.35222 3.05784 3.82889 2.73934 4.3535 2.52204C4.87811 2.30474 5.44038 2.1929 6.00822 2.1929C6.57605 2.1929 7.13832 2.30474 7.66293 2.52204C8.18754 2.73934 8.66421 3.05784 9.06573 3.45936C9.46725 3.86088 9.78575 4.33755 10.0031 4.86216C10.2204 5.38677 10.3322 5.94904 10.3322 6.51688C10.3322 8.32959 9.26225 9.92566 8.47969 11.0752Z" fill="#717D8A"/>
</svg>
