<svg width="12" height="11" viewBox="0 0 12 11" fill="none" xmlns="http://www.w3.org/2000/svg">
<path d="M11.3143 0.500003H0.419048C0.187262 0.500003 0 0.695003 0 0.936367V9.66364C0 9.905 0.187262 10.1 0.419048 10.1H11.3143C11.5461 10.1 11.7333 9.905 11.7333 9.66364V0.936367C11.7333 0.695003 11.5461 0.500003 11.3143 0.500003ZM10.7905 2.01091V9.11819H0.942857V2.01091L0.581429 1.71773L1.09607 1.02909L1.65655 1.48318H10.0781L10.6386 1.02909L11.1532 1.71773L10.7905 2.01091ZM10.0781 1.48182L5.86667 4.89091L1.65524 1.48182L1.09476 1.02773L0.580119 1.71637L0.941548 2.00955L5.41488 5.63137C5.54353 5.73544 5.7018 5.79194 5.8647 5.79194C6.02761 5.79194 6.18588 5.73544 6.31452 5.63137L10.7905 2.01091L11.1519 1.71773L10.6373 1.02909L10.0781 1.48182Z" fill="#717D8A"/>
</svg>
